<svg height="159" viewBox="0 0 159 159" width="159" xmlns="http://www.w3.org/2000/svg" xmlns:xlink="http://www.w3.org/1999/xlink"><mask id="a" fill="#fff"><path d="m.13466666.28133333h157.02532934v157.02666267h-157.02532934z" fill="#fff" fill-rule="evenodd"/></mask><mask id="b" fill="#fff"><path d="m.13466666.28133333h157.02532934v157.02666267h-157.02532934z" fill="#fff" fill-rule="evenodd"/></mask><mask id="c" fill="#fff"><path d="m.13466666.28133333h157.02532934v157.02666267h-157.02532934z" fill="#fff" fill-rule="evenodd"/></mask><mask id="d" fill="#fff"><path d="m.13466666.28133333h157.02532934v157.02666267h-157.02532934z" fill="#fff" fill-rule="evenodd"/></mask><g fill="none" fill-rule="evenodd" transform="matrix(1 0 0 -1 .333328 158.666669)"><g mask="url(#a)"><path d="m78.6478647.28133333c43.3613323 0 78.5133313 35.15199907 78.5133313 78.51333137s-35.151999 78.5133313-78.5133313 78.5133313c-43.3613322 0-78.51333137-35.151999-78.51333137-78.5133313s35.15199917-78.51333137 78.51333137-78.51333137" fill="#0368b0" fill-rule="nonzero"/><path d="m78.6478647 22.3613328c31.1666663 0 56.4333323 25.266666 56.4333323 56.4333319 0 31.1666663-25.266666 56.4333323-56.4333323 56.4333323-31.1666659 0-56.4333319-25.266666-56.4333319-56.4333323 0-31.1666659 25.266666-56.4333319 56.4333319-56.4333319" fill="#fff" fill-rule="nonzero"/><g stroke="#9d9fa2" transform="translate(97.333331 47.999999)"><path d="m16.4330663 1.07933331v24.97599939c0 11.5146664-14.91999967 15.2439996-14.91999967 15.2439996" stroke-linecap="round" stroke-linejoin="round" stroke-width="4.054667"/><path d="m5.79453319 47.8370655c2.61999993 0 4.75066651 2.1306666 4.75066651 4.7506665 0 2.6186666-2.13066658 4.7506666-4.75066651 4.7506666-2.61999994 0-4.75066655-2.132-4.75066655-4.7506666 0-2.6199999 2.13066661-4.7506665 4.75066655-4.7506665z" stroke-width="3.604"/></g></g><path d="m98.8466642 85.7093312h3.1039998v5.8613332h-3.1039998z" fill="#fff" fill-rule="nonzero"/><g mask="url(#b)" stroke="#53beed"><g transform="translate(42.666666 46.666665)"><path d="m.86266665.79079998v24.97599942c0 11.5146663 14.91999965 15.2439996 14.91999965 15.2439996" stroke-linecap="round" stroke-linejoin="round" stroke-width="4.054667"/><path d="m14.8754663 52.7382653c2.6199999 0 4.7506665 2.1306667 4.7506665 4.7506666 0 2.6186666-2.1306666 4.7506665-4.7506665 4.7506665s-4.7506666-2.1319999-4.7506666-4.7506665c0-2.6199999 2.1306667-4.7506666 4.7506666-4.7506666z" stroke-width="3.604"/></g></g><path d="m56.9093319 84.0173312h4.3786666v5.8613332h-4.3786666z" fill="#fff" fill-rule="nonzero"/><g mask="url(#c)" stroke="#0968b0"><g transform="translate(59.999998 37.333332)"><path d="m6.08546651 48.3986655c2.27066661-1.2973333 9.28533309-6.0013332 9.60933309-11.8386664.324-5.8386665.1213333-23.8413328.1213333-29.35466595 0-3.08133325-4.7026665-6.36533317-7.13599978-6.36533317-3.08133326 0-7.45999982 3.16133325-7.45999982 6.08133318v42.45066564c0 5.1893332 6.81199983 16.3799996 18.0013329 16.3799996 8.7586664 0 18.3266662-6.6493332 18.3266662-16.3799996v-25.2999994c0-3.2439999-1.9453333-7.4599998-6.1626665-7.4599998-4.2159999 0-6.4866665 4.7026665-6.4866665 7.2973331v15.245333c0 4.5413332 7.1359998 9.3253331 7.1359998 9.3253331" stroke-linecap="round" stroke-width="4.054667"/><path d="m19.2061329 74.6087981c2.6199999 0 4.7506665 2.1306666 4.7506665 4.7506666 0 2.6186666-2.1306666 4.7506665-4.7506665 4.7506665-2.62 0-4.7506666-2.1319999-4.7506666-4.7506665 0-2.62 2.1306666-4.7506666 4.7506666-4.7506666z" stroke-width="3.604"/></g></g><path d="m91.8719977 82.6506646h2.4546666v6.6493332h-2.4546666z" fill="#fff" fill-rule="nonzero"/><path d="m63.8146651 82.1639979h2.4546666v6.6493332h-2.4546666z" fill="#fff" fill-rule="nonzero"/><path d="m4.727867 78.674665h13.919999" stroke="#57beec" stroke-linecap="round" stroke-linejoin="round" stroke-width="1.666667"/><path d="m139.001197 78.674665h13.919999" stroke="#57beec" stroke-linecap="round" stroke-linejoin="round" stroke-width="1.666667"/><g fill="#fff" fill-rule="nonzero" mask="url(#d)"><g transform="translate(8 6.666666)"><path d="m136.873997 48.3063988c1.178666.496 1.904 1.568 2.222666 2.7746666.696 2.6399999-.868 5.0679999-3.484 5.7573332-2.702666.712-5.194666-.74-5.868-3.2919999-.373333-1.42-.189333-2.7053333.669334-3.7786666l.876.616c-.638667.84-.850667 1.8239999-.565334 2.9053332.526667 1.9986667 2.529334 2.9626666 4.590667 2.4186666 1.949333-.5133333 3.325333-2.3813332 2.801333-4.3679999-.225333-.8546666-.810666-1.6013332-1.666666-1.9399999zm-11.058667-5.3466665c-1.26-2.496-.333333-5.2173332 2.150667-6.4706665 2.485333-1.2533333 5.224-.38 6.482666 2.1159999 1.26 2.4959999.333334 5.2186665-2.150666 6.4719998-2.485334 1.2533333-5.224.3786667-6.482667-2.1173332m.904-.456c.972 1.9279999 3.16 2.4839999 5.052 1.5293333 1.892-.9546667 2.745333-3.044 1.773333-4.9719999-.972-1.9266666-3.16-2.4839999-5.052-1.5293333-1.891999.9546666-2.745333 3.0453333-1.773333 4.9719999m-4.892-7.0319999-2.254666-2.7226666c-1.153334-1.3919999-1.946667-4.2439998.666666-6.4093331 2.614667-2.164 5.268-.8533333 6.421334.54l2.254666 2.7213332zm5.612-6.0639998-1.326666-1.6026666c-1.344-1.6226667-3.185334-2.1746666-5.128-.5653333-1.942667 1.6093332-1.744 3.5213332-.4 5.1439998l1.326666 1.6026667zm-13.450666-2.8746666-4.650667-3.8199999.642667-.7813333 3.808 3.1266666 2.08-2.532-3.385333-2.7813332.642666-.7826667 3.385333 2.7813333 1.833334-2.2306666-3.626667-2.9799999.642667-.7813334 4.469333 3.6706666zm-12.566667-9.0106664-.978666-.4786667 1.813333-3.7146666-3.8546665-1.8826666.444-.9093333 3.8559995 1.8826666 1.334667-2.73466658-4.1466665-2.02533328.4453335-.91066664 5.125333 2.50399994zm-12.6106659-4.9239999c-2.6959999-.7426667-4.0919999-3.25599993-3.3533332-5.93866653.7386666-2.6826666 3.2253332-4.12666657 5.9199998-3.38399992 2.6959999.74133332 4.0919999 3.25466659 3.3533333 5.93866652-.7386667 2.68266663-3.2253333 4.12666653-5.9199999 3.38399993m.268-.976c2.0813333.5733333 3.9626666-.676 4.5253332-2.71866659.5626667-2.04399995-.4133333-4.0799999-2.4946666-4.65199988-2.0813333-.57333332-3.9626665.67466665-4.5253332 2.7186666-.5626667 2.04266661.4146667 4.07866657 2.4946666 4.65199987m-8.6293331-1.2093333-1.084-.1146667.4346667-4.11066652-1.396-.148-2.9186666 3.84799991-1.3293333-.14 3.0426666-3.9399999c-1.3986666-.37066666-2.1719999-1.32666664-2.0306666-2.6586666.2386666-2.26266661 2.1399999-2.32266661 3.9106666-2.13466662l2.3399999.248zm-.2226667-8.25866645-1.5253333-.16266667c-1.0613333-.11199999-2.2319999-.04-2.3719999 1.27999997-.16 1.5133333 1.4053333 1.67866663 2.6079999 1.80666662l.9693333.10266667zm-15.4653329 7.68533314-1.0813333.13999999-.5306667-4.09999989-1.3933333.18133333-1.9453333 4.41999988-1.3266666.172 2.0466666-4.53866655c-1.4466666-.03466667-2.4213333-.78533332-2.5933332-2.11466662-.292-2.25599994 1.5426666-2.75466659 3.3093332-2.98399992l2.3319999-.30266666zm-2.1333333-7.98266647-1.5213333.19733333c-1.0586666.13733333-2.1813333.47999999-2.0106666 1.79466662.196 1.5093333 1.7559999 1.30799997 2.9559999 1.15199997l.9666667-.12533333zm-7.7786665 9.50933308-5.7626665 1.732-.292-.9693333 4.7186666-1.4186667-.944-3.13866656-4.1946666 1.26133331-.292-.97066665 4.1959999-1.25999997-.832-2.76533326-4.4933332 1.35066663-.292-.96933331 5.5386666-1.66533329zm-19.5053328-.9986666c.256-1.25199999 1.1666666-2.1733333 2.2879999-2.72133329 2.4533333-1.19866664 5.1386666-.13866666 6.3253332 2.29066661 1.2266666 2.51199998.2893333 5.23999988-2.0813333 6.39866648-1.3199999.644-2.6173332.7146667-3.8373332.0813334l.4333333-.9786667c.9493333.4626667 1.9546666.4786667 2.9599999-.012 1.8573333-.908 2.4120002-3.0599999 1.476-4.9759999-.8853333-1.81066658-2.9866666-2.79599989-4.8319999-1.89466658-.7946666.38799999-1.4119999 1.10933331-1.5773333 2.01466658zm-3.1573333 11.7879997c-2.2413332 1.6706666-5.0826665 1.2293333-6.7466665-1.0026667-1.6626666-2.2306666-1.2759999-5.0786665.9653333-6.7506665 2.2413333-1.6706666 5.0826666-1.2293333 6.7466665 1.0026667 1.6626667 2.2306666 1.276 5.0799999-.9653333 6.7506665m-.6053333-.812c1.7306666-1.2906666 1.9-3.5413332.6333333-5.2413332-1.2666666-1.6986666-3.4733332-2.1786666-5.2039998-.888-1.7306667 1.2906667-1.9 3.5413333-.6333334 5.2413332 1.2666667 1.6986666 3.4733333 2.1786666 5.2039999.888m-7.7066665 7.8266665-.7093333.7773333-9.2226664-3.5479999.78-.8533333 7.5586664 2.9426666.0173334-.0186667-3.6759999-7.1959998.8333333-.912zm-5.0759998 5.8933332-3.1106666 5.1519998-.8666667-.524 2.5466666-4.2173332-2.8053332-1.6946666-2.2653333 3.7506666-.8666666-.524 2.2653332-3.7493333-2.4719999-1.4933333-2.42666662 4.0173333-.86666664-.5226667 2.99066656-4.9506665zm-4.9133332 8.4719997-.4146667 1.008-3.82399991-1.5693333-.53333332 1.2986667 2.87466663 3.8799999-.508 1.2373333-2.92799995-4.0253333c-.74666665 1.2386667-1.88266662 1.712-3.12133325 1.204-2.10399995-.864-1.6293333-2.7053333-.95199998-4.3533332l.89333331-2.176zm-7.99066651-2.1026666-.58266666 1.42c-.40533332.9866666-.66533331 2.1306666.56266666 2.6346666 1.40799996.5786666 2.00533328-.8773333 2.46533327-1.996l.36933332-.9026666zm4.18666651 13.165333-.22133328 1.068-3.88266657-.8026666-5.82399985 2.2986666.26533332-1.2853333 4.61333322-1.7666667-3.54933324-3.3746665.28266666-1.3626667 4.43333322 4.4226666z"/><path d="m3.9019999 95.4909309c-1.17999997-.4919999-1.90933328-1.5626666-2.23066661-2.7693332-.70266665-2.6373333.85333331-5.0693332 3.46666658-5.7653332 2.70133327-.7213333 5.19733323.724 5.87733323 3.2733332.3786666 1.42.1973333 2.7053333-.6586667 3.7813333l-.87599997-.6133333c.63599997-.8426667.84533327-1.8266667.55599997-2.9066666-.53199997-1.9973333-2.53733325-2.956-4.5973332-2.4066666-1.94799995.52-3.31866659 2.3919999-2.78933327 4.3773332.228.8533333.81599998 1.5986666 1.6733333 1.9346666zm11.1053331 5.2973331c1.3346666 2.457333.4919999 5.205333-1.9533333 6.533333-2.4453333 1.328-5.21066656.538667-6.54399986-1.917333-1.33466664-2.457333-.49199999-5.206667 1.95333328-6.5346665 2.44533328-1.3279999 5.20933318-.5373333 6.54399988 1.9186665m-.8893334.482667c-1.0306666-1.8960002-3.2346665-2.3853335-5.09733316-1.3746668-1.86266662 1.0119998-2.65199993 3.1279998-1.62133329 5.0239998 1.03066664 1.897333 3.23466655 2.386667 5.09733325 1.374667 1.8626666-1.010667 2.6519999-3.126667 1.6213332-5.024m4.9879999 6.946666 2.2706666 2.709334c1.1613333 1.385333 1.972 4.233333-.6293333 6.411999-2.6013333 2.18-5.2626665.884-6.4239998-.501333l-2.2706666-2.709333zm-5.5773332 6.096 1.3373333 1.594667c1.352 1.614666 3.1973333 2.156 5.1306666.536s1.7226666-3.532.3706666-5.146667l-1.3373333-1.594666zm13.5106664 2.753333 4.6719998 3.792-.6373333.786667-3.8253332-3.105333-2.0666666 2.544 3.4013332 2.761333-.6373333.786667-3.4013332-2.761334-1.82 2.241334 3.6426666 2.957333-.6373333.786666-4.4906666-3.645333zm12.6239996 8.946667.992.452-1.7106666 3.762666 3.9053332 1.776-.4186666.921334-3.9053333-1.776-1.2599999 2.770666 4.2013332 1.910667-.4186667.921333-5.1946665-2.361333zm12.6839997 4.750666c2.6973333.734667 4.1013333 3.244 3.3706666 5.928-.7306666 2.685334-3.2119999 4.137333-5.9106665 3.402667-2.6973333-.733333-4.1013332-3.242667-3.3706666-5.928.7306667-2.685333 3.2133333-4.137333 5.9106665-3.402667m-.2653333.977334c-2.0826666-.568-3.9613332.686666-4.5173332 2.732-.556 2.045333.4266666 4.077333 2.5093332 4.645333 2.0826667.566667 3.9599999-.688 4.5159999-2.733333.5573334-2.045334-.4253333-4.077334-2.5079999-4.644m8.6319998 1.230666 1.0866666.088-.3346666 4.12 1.3999999.114667 2.8226666-3.918667 1.3333333.108-2.9466666 4.012c1.408.336 2.204 1.273334 2.096 2.609333-.184 2.266667-2.0826666 2.373334-3.8586666 2.229334l-2.3439999-.190667zm.424 8.250667 1.5293333.125333c1.0626666.085333 2.2319999-.014667 2.3399999-1.337333.1226667-1.517333-1.4453333-1.644-2.6506666-1.742667l-.9733333-.078666zm15.2853329-7.736 1.0773333-.162667.62 4.086667 1.388-.210667 1.8493333-4.461333 1.3226666-.2-1.9466666 4.581333c1.4466666.004 2.4373333.733334 2.6373332 2.058667.3413334 2.248-1.4826666 2.786666-3.2439999 3.054666l-2.3253332.352zm2.3053333 7.934666 1.5173333-.230666c1.0533333-.16 2.1693333-.525334 1.9706666-1.837333-.228-1.505334-1.7839999-1.269334-2.9799999-1.088l-.964.146666zm7.5919998-9.557333 5.7679999-1.713333.288.970667-4.7226666 1.402666.9333333 3.142667 4.1986666-1.248.2893333.970667-4.1999999 1.246666.8226667 2.768 4.4986665-1.336.288.970667-5.5439999 1.646666zm19.4866665 1.054667c-.261334 1.252-1.176 2.169333-2.3 2.712-2.458667 1.186667-5.1386668.114667-6.3146668-2.321333-1.2159999-2.517334-.2653333-5.24 2.1106667-6.388 1.3226661-.638667 2.6200001-.702667 3.8373331-.064l-.437333.976c-.946667-.466667-1.953334-.486667-2.9600002 0-1.8613332.898666-2.4253332 3.048-1.4986666 4.968.876 1.816 2.9733328 2.810666 4.8226668 1.917333.796-.384 1.417333-1.102667 1.586666-2.008zm3.204-11.788c2.250666-1.657333 5.089333-1.2 6.739999 1.04 1.650667 2.24 1.248 5.086667-1.002666 6.745333-2.250667 1.658667-5.089333 1.201334-6.74-1.04-1.650667-2.239999-1.248-5.086666 1.002667-6.745333m.601333.816c-1.738667 1.28-1.921333 3.530667-.664 5.237333 1.257333 1.705334 3.461333 2.197334 5.198666.917334 1.737334-1.28 1.921334-3.530667.664-5.237333-1.257333-1.706667-3.461333-2.198667-5.198666-.917334m7.761333-7.776.696-.790666 9.286666 3.378666-.763999.868-7.612-2.804-.017334.02 3.806667 7.126667-.816.926667zm5.06-5.906666 3.137333-5.134667.862667.528-2.568 4.204 2.796 1.708 2.285333-3.737333.864.526667-2.285333 3.738666 2.464 1.505334 2.448-4.004.862666.528-3.014666 4.934666zm5.014666-8.4266665.392-1.0173333 3.858667 1.4853328.504-1.3106661-2.961333-3.8146666.481333-1.2493333 3.016 3.9599999c.72-1.2546666 1.844-1.7546666 3.094667-1.2733333 2.122666.8173333 1.688 2.6693333 1.048 4.3319994l-.845334 2.194667zm8.034667 1.9253335.552-1.432c.382667-.9960002.617333-2.1453335-.621333-2.6226668-1.42-.5466666-1.985334.9226667-2.42 2.0506666l-.350667.9106662zm-4.322667-13.0226666.222667-1.0666666 3.88.812 5.830666-2.2853333-.269333 1.2853333-4.617333 1.7546666 3.541333 3.384-.285333 1.3613333-4.422667-4.4333333z"/></g></g></g></svg>