<?xml version="1.0" encoding="utf-8"?>
<!-- Generator: Adobe Illustrator 16.0.0, SVG Export Plug-In . SVG Version: 6.00 Build 0)  -->
<!DOCTYPE svg PUBLIC "-//W3C//DTD SVG 1.1//EN" "http://www.w3.org/Graphics/SVG/1.1/DTD/svg11.dtd">
<svg version="1.1" id="US_UK_Download_on_the" xmlns="http://www.w3.org/2000/svg" xmlns:xlink="http://www.w3.org/1999/xlink"
	 x="0px" y="0px" width="133.142px" height="38.208px" viewBox="0.89 0.89 133.142 38.208"
	 enable-background="new 0.89 0.89 133.142 38.208" xml:space="preserve">
<path d="M134.032,35.268c0,2.116-1.714,3.83-3.834,3.83H4.729c-2.119,0-3.839-1.714-3.839-3.83V4.725
	c0-2.115,1.72-3.835,3.839-3.835h125.468c2.121,0,3.834,1.72,3.834,3.835L134.032,35.268L134.032,35.268z"/>
<g id="PLAY_2_">
	<g>
		<defs>
			<path id="SVGID_1_" d="M28.669,17.08l-5.874-3.391c0,0-10.7-6.179-11.33-6.542c-0.629-0.363-1.255-0.143-1.255,0.616
				c0,1.264,0,13.192,0,13.192s0,12.89,0,13.459s0.448,0.814,0.994,0.499s11.591-6.692,11.591-6.692l5.873-3.391
				c0,0,4.983-2.877,5.646-3.26c0.662-0.383,0.599-0.907,0.04-1.208C33.796,20.061,28.669,17.08,28.669,17.08z"/>
		</defs>
		<clipPath id="SVGID_2_">
			<use xlink:href="#SVGID_1_"  overflow="visible"/>
		</clipPath>
		
			<linearGradient id="SVGID_3_" gradientUnits="userSpaceOnUse" x1="-205.3271" y1="224.0498" x2="-205.3271" y2="213.791" gradientTransform="matrix(2.8125 0 0 -2.8125 594.9707 636.666)">
			<stop  offset="0" style="stop-color:#257CB0"/>
			<stop  offset="0.2863" style="stop-color:#4A93B5"/>
			<stop  offset="0.767" style="stop-color:#78BCBB"/>
			<stop  offset="1" style="stop-color:#89CFBD"/>
		</linearGradient>
		<polygon clip-path="url(#SVGID_2_)" fill="url(#SVGID_3_)" points="10.211,6.527 10.211,20.955 10.211,35.382 24.761,20.955 		"/>
	</g>
	<g>
		<defs>
			<path id="SVGID_4_" d="M28.669,17.08l-5.874-3.391c0,0-10.7-6.179-11.33-6.542c-0.629-0.363-1.255-0.143-1.255,0.616
				c0,1.264,0,13.192,0,13.192s0,12.89,0,13.459s0.448,0.814,0.994,0.499s11.591-6.692,11.591-6.692l5.873-3.391
				c0,0,4.983-2.877,5.646-3.26c0.662-0.383,0.599-0.907,0.04-1.208C33.796,20.061,28.669,17.08,28.669,17.08z"/>
		</defs>
		<clipPath id="SVGID_5_">
			<use xlink:href="#SVGID_4_"  overflow="visible"/>
		</clipPath>
		
			<linearGradient id="SVGID_6_" gradientUnits="userSpaceOnUse" x1="-207.9141" y1="221.5039" x2="-201.3511" y2="221.5039" gradientTransform="matrix(2.8125 0 0 -2.8125 594.9707 636.666)">
			<stop  offset="0" style="stop-color:#52C1AD"/>
			<stop  offset="1" style="stop-color:#DEE89A"/>
		</linearGradient>
		<polygon clip-path="url(#SVGID_5_)" fill="url(#SVGID_6_)" points="28.669,17.08 22.796,13.688 10.211,6.422 10.211,6.527 
			24.761,20.955 		"/>
	</g>
	<g>
		<defs>
			<path id="SVGID_7_" d="M28.669,17.08l-5.874-3.391c0,0-10.7-6.179-11.33-6.542c-0.629-0.363-1.255-0.143-1.255,0.616
				c0,1.264,0,13.192,0,13.192s0,12.89,0,13.459s0.448,0.814,0.994,0.499s11.591-6.692,11.591-6.692l5.873-3.391
				c0,0,4.983-2.877,5.646-3.26c0.662-0.383,0.599-0.907,0.04-1.208C33.796,20.061,28.669,17.08,28.669,17.08z"/>
		</defs>
		<clipPath id="SVGID_8_">
			<use xlink:href="#SVGID_7_"  overflow="visible"/>
		</clipPath>
		
			<linearGradient id="SVGID_9_" gradientUnits="userSpaceOnUse" x1="-204.6323" y1="218.9199" x2="-204.6323" y2="213.7529" gradientTransform="matrix(2.8125 0 0 -2.8125 594.9707 636.666)">
			<stop  offset="0" style="stop-color:#EC413D"/>
			<stop  offset="0.1668" style="stop-color:#DA4452"/>
			<stop  offset="0.5748" style="stop-color:#B0487A"/>
			<stop  offset="0.8619" style="stop-color:#954A92"/>
			<stop  offset="1" style="stop-color:#8A4A9D"/>
		</linearGradient>
		<polygon clip-path="url(#SVGID_8_)" fill="url(#SVGID_9_)" points="10.211,35.382 10.211,35.487 22.796,28.221 28.669,24.83 
			24.761,20.955 		"/>
	</g>
	<g>
		<defs>
			<path id="SVGID_10_" d="M28.669,17.08l-5.874-3.391c0,0-10.7-6.179-11.33-6.542c-0.629-0.363-1.255-0.143-1.255,0.616
				c0,1.264,0,13.192,0,13.192s0,12.89,0,13.459s0.448,0.814,0.994,0.499s11.591-6.692,11.591-6.692l5.873-3.391
				c0,0,4.983-2.877,5.646-3.26c0.662-0.383,0.599-0.907,0.04-1.208C33.796,20.061,28.669,17.08,28.669,17.08z"/>
		</defs>
		<clipPath id="SVGID_11_">
			<use xlink:href="#SVGID_10_"  overflow="visible"/>
		</clipPath>
		
			<linearGradient id="SVGID_12_" gradientUnits="userSpaceOnUse" x1="-200.8525" y1="220.2979" x2="-200.8525" y2="217.543" gradientTransform="matrix(2.8125 0 0 -2.8125 594.9707 636.666)">
			<stop  offset="0" style="stop-color:#F58879"/>
			<stop  offset="0.1194" style="stop-color:#F69079"/>
			<stop  offset="0.7128" style="stop-color:#FCB877"/>
			<stop  offset="1" style="stop-color:#FEC874"/>
		</linearGradient>
		<polygon clip-path="url(#SVGID_11_)" fill="url(#SVGID_12_)" points="28.669,17.08 24.761,20.955 28.669,24.83 35.381,20.955 		
			"/>
	</g>
</g>
<path fill="#F9F9F9" d="M101.814,26.595c-0.547,0-1.046-0.101-1.497-0.302s-0.831-0.512-1.138-0.93h-0.092
	c0.062,0.489,0.092,0.954,0.092,1.393v3.453h-1.27V18.051h1.033l0.176,1.148h0.061c0.327-0.46,0.708-0.791,1.142-0.995
	s0.932-0.307,1.492-0.307c1.113,0,1.973,0.381,2.577,1.141c0.604,0.761,0.907,1.828,0.907,3.2c0,1.379-0.308,2.449-0.922,3.213
	C103.761,26.214,102.907,26.595,101.814,26.595z M101.63,18.977c-0.857,0-1.478,0.238-1.86,0.713s-0.579,1.229-0.59,2.267v0.282
	c0,1.18,0.197,2.023,0.59,2.531c0.394,0.508,1.024,0.762,1.892,0.762c0.725,0,1.293-0.293,1.704-0.881
	c0.41-0.586,0.615-1.396,0.615-2.427c0-1.046-0.205-1.85-0.615-2.408C102.954,19.256,102.376,18.977,101.63,18.977z"/>
<path fill="#F9F9F9" d="M108.24,26.441h-1.271V14.528h1.271V26.441z"/>
<path fill="#F9F9F9" d="M115.548,26.441l-0.253-1.193h-0.062c-0.418,0.525-0.835,0.882-1.252,1.067
	c-0.415,0.187-0.935,0.279-1.558,0.279c-0.832,0-1.483-0.214-1.956-0.643s-0.708-1.038-0.708-1.83c0-1.694,1.355-2.582,4.065-2.664
	l1.425-0.046v-0.521c0-0.658-0.143-1.145-0.426-1.458c-0.283-0.314-0.736-0.471-1.358-0.471c-0.7,0-1.491,0.214-2.374,0.643
	l-0.391-0.973c0.414-0.225,0.866-0.4,1.359-0.528c0.493-0.127,0.986-0.191,1.481-0.191c1.001,0,1.742,0.223,2.225,0.666
	c0.481,0.444,0.723,1.156,0.723,2.137v5.727H115.548L115.548,26.441z M112.677,25.547c0.791,0,1.412-0.217,1.864-0.651
	c0.451-0.434,0.678-1.041,0.678-1.822v-0.758l-1.271,0.053c-1.011,0.037-1.739,0.193-2.186,0.472
	c-0.447,0.278-0.67,0.711-0.67,1.298c0,0.459,0.139,0.81,0.417,1.049C111.787,25.427,112.176,25.547,112.677,25.547z"/>
<path fill="#F9F9F9" d="M117.228,18.051h1.362l1.838,4.785c0.403,1.093,0.653,1.881,0.751,2.366h0.061
	c0.066-0.261,0.206-0.706,0.417-1.337c0.212-0.63,0.905-2.568,2.079-5.814h1.363l-3.606,9.556c-0.357,0.944-0.774,1.614-1.252,2.01
	s-1.063,0.593-1.757,0.593c-0.388,0-0.771-0.043-1.149-0.13v-1.018c0.281,0.061,0.596,0.092,0.942,0.092
	c0.873,0,1.495-0.49,1.868-1.471l0.467-1.194L117.228,18.051z"/>
<path fill="#F9F9F9" d="M78.271,18.83c0.403,0.334,1.245,1.035,1.245,2.37c0,1.298-0.737,1.914-1.475,2.492
	c-0.228,0.228-0.491,0.475-0.491,0.86s0.263,0.597,0.457,0.755l0.632,0.49c0.772,0.65,1.474,1.247,1.474,2.459
	c0,1.649-1.598,3.316-4.615,3.316c-2.546,0-3.773-1.211-3.773-2.511c0-0.632,0.314-1.526,1.352-2.141
	c1.087-0.667,2.562-0.754,3.352-0.809c-0.246-0.315-0.526-0.648-0.526-1.192c0-0.298,0.088-0.474,0.176-0.685
	c-0.194,0.018-0.387,0.035-0.562,0.035c-1.86,0-2.913-1.387-2.913-2.755c0-0.808,0.369-1.703,1.123-2.353
	c1.001-0.824,2.194-0.965,3.143-0.965h3.615l-1.124,0.631H78.271L78.271,18.83z M77.023,26.624
	c-0.141-0.019-0.229-0.019-0.403-0.019c-0.157,0-1.106,0.036-1.843,0.282c-0.387,0.14-1.51,0.561-1.51,1.808
	c0,1.245,1.211,2.142,3.09,2.142c1.684,0,2.58-0.809,2.58-1.896C78.938,28.044,78.358,27.572,77.023,26.624z M77.533,23.288
	c0.402-0.404,0.438-0.965,0.438-1.281c0-1.264-0.755-3.229-2.211-3.229c-0.457,0-0.948,0.229-1.229,0.58
	c-0.298,0.368-0.387,0.842-0.387,1.299c0,1.176,0.685,3.124,2.194,3.124C76.778,23.78,77.251,23.569,77.533,23.288z"/>
<path fill="#F9F9F9" d="M67.22,26.343c-2.786,0-4.275-2.173-4.275-4.136c0-2.296,1.875-4.258,4.539-4.258
	c2.575,0,4.187,2.015,4.187,4.136C71.671,24.151,70.077,26.343,67.22,26.343z M69.41,24.924c0.422-0.562,0.526-1.262,0.526-1.946
	c0-1.542-0.735-4.486-2.909-4.486c-0.578,0-1.156,0.229-1.577,0.598c-0.684,0.612-0.807,1.384-0.807,2.138
	c0,1.733,0.859,4.59,2.98,4.59C68.308,25.816,69.008,25.483,69.41,24.924z"/>
<path fill="#F9F9F9" d="M57.722,26.343c-2.786,0-4.276-2.173-4.276-4.136c0-2.296,1.875-4.258,4.539-4.258
	c2.575,0,4.188,2.015,4.188,4.136C62.173,24.151,60.579,26.343,57.722,26.343z M59.913,24.924c0.42-0.562,0.526-1.262,0.526-1.946
	c0-1.542-0.737-4.486-2.91-4.486c-0.578,0-1.157,0.229-1.577,0.598c-0.684,0.612-0.806,1.384-0.806,2.138
	c0,1.733,0.858,4.59,2.979,4.59C58.81,25.816,59.51,25.483,59.913,24.924z"/>
<path fill="#F9F9F9" d="M52.107,26.068l-2.52,0.581c-1.022,0.159-1.938,0.299-2.907,0.299c-4.863,0-6.712-3.576-6.712-6.378
	c0-3.417,2.625-6.588,7.118-6.588c0.952,0,1.867,0.141,2.695,0.37c1.321,0.37,1.938,0.828,2.326,1.092l-1.463,1.392l-0.616,0.14
	l0.44-0.705c-0.599-0.581-1.692-1.655-3.771-1.655c-2.784,0-4.881,2.115-4.881,5.198c0,3.311,2.396,6.43,6.236,6.43
	c1.129,0,1.709-0.229,2.238-0.441v-2.835l-2.66,0.141l1.409-0.759h3.735l-0.458,0.44c-0.124,0.106-0.141,0.142-0.176,0.281
	c-0.019,0.159-0.035,0.671-0.035,0.847L52.107,26.068L52.107,26.068z"/>
<path fill="#F9F9F9" d="M83.839,25.561c-0.582-0.053-0.704-0.158-0.704-0.846v-0.194v-9.777c0.004-0.038,0.006-0.077,0.01-0.113
	c0.071-0.616,0.247-0.722,0.794-1.04h-2.521l-1.321,0.634h1.347v0.008l-0.001-0.006v10.295v0.581c0,0.353-0.069,0.405-0.476,0.934
	h3.119l0.651-0.387C84.438,25.613,84.139,25.596,83.839,25.561z"/>
<path fill="#F9F9F9" d="M91.008,25.723c-0.192,0.105-0.385,0.229-0.576,0.315c-0.579,0.262-1.173,0.332-1.699,0.332
	c-0.559,0-1.435-0.036-2.327-0.683c-1.241-0.875-1.783-2.38-1.783-3.691c0-2.712,2.204-4.042,4.006-4.042
	c0.63,0,1.278,0.157,1.803,0.49c0.874,0.577,1.102,1.329,1.224,1.731l-4.11,1.663l-1.348,0.104c0.437,2.223,1.941,3.516,3.604,3.516
	c0.893,0,1.54-0.313,2.135-0.61L91.008,25.723z M89.363,20.508c0.332-0.122,0.507-0.228,0.507-0.472
	c0-0.699-0.787-1.505-1.732-1.505c-0.701,0-2.012,0.543-2.012,2.432c0,0.298,0.035,0.612,0.053,0.929L89.363,20.508z"/>
<path fill="#F9F9F9" d="M92.696,18.074v1.154h-0.141v-1.154h-0.382v-0.12h0.904v0.12H92.696z"/>
<path fill="#F9F9F9" d="M94.27,19.229v-1.165h-0.006l-0.355,1.165h-0.109l-0.359-1.165h-0.004v1.165h-0.128v-1.274h0.219l0.324,1.03
	h0.005l0.319-1.03h0.222v1.274H94.27z"/>
<path fill="#F9F9FA" d="M43.468,10.552h-0.875c0-0.121-0.083-0.461-0.249-1.023H41.08c-0.171,0.553-0.257,0.894-0.257,1.023h-0.823
	c0-0.071,0.213-0.655,0.639-1.751s0.639-1.7,0.639-1.811h1.034c0,0.104,0.193,0.699,0.579,1.785
	C43.275,9.861,43.468,10.454,43.468,10.552z M42.204,9.006c-0.312-0.941-0.468-1.45-0.468-1.527h-0.044
	c0,0.071-0.161,0.58-0.484,1.527H42.204z"/>
<path fill="#F9F9FA" d="M46.996,10.552H46.32c0-0.075-0.251-0.47-0.752-1.185c-0.525-0.753-0.824-1.269-0.897-1.546h-0.043
	c0.045,0.399,0.068,0.761,0.068,1.083c0,0.451,0.013,1,0.038,1.647h-0.673c0.027-0.565,0.041-1.186,0.041-1.863
	c0-0.666-0.014-1.232-0.041-1.699h0.812c0,0.097,0.225,0.482,0.675,1.157c0.48,0.717,0.755,1.203,0.826,1.458h0.041
	c-0.043-0.407-0.065-0.771-0.065-1.094c0-0.494-0.013-1.001-0.039-1.521h0.684c-0.025,0.452-0.038,1.019-0.038,1.699
	C46.958,9.375,46.97,9.996,46.996,10.552z"/>
<path fill="#F9F9FA" d="M50.961,8.648c0,0.518-0.166,0.97-0.498,1.357s-0.797,0.58-1.396,0.58c-0.27,0-0.642-0.011-1.116-0.033
	c0.024-0.551,0.036-1.172,0.036-1.863c0-0.664-0.012-1.23-0.036-1.699h0.479c0.079,0,0.195-0.002,0.35-0.008
	c0.155-0.005,0.256-0.008,0.304-0.008c0.658,0,1.135,0.164,1.432,0.493C50.812,7.794,50.961,8.188,50.961,8.648z M50.214,8.766
	c0-0.35-0.102-0.645-0.306-0.885c-0.204-0.24-0.516-0.36-0.936-0.36c-0.079,0-0.186,0.008-0.323,0.025
	c0.018,0.365,0.027,0.746,0.027,1.144c0,0.436,0.009,0.868,0.027,1.297c0.119,0.023,0.237,0.036,0.355,0.036
	c0.392,0,0.683-0.122,0.871-0.366C50.119,9.413,50.214,9.116,50.214,8.766z"/>
<path fill="#F9F9FA" d="M54.617,10.552h-0.81c-0.211-0.646-0.374-1.044-0.487-1.196c-0.113-0.151-0.295-0.227-0.547-0.227
	c-0.106,0-0.207,0.001-0.304,0.003c0,0.469,0.008,0.942,0.024,1.42h-0.76c0.024-0.551,0.036-1.172,0.036-1.863
	c0-0.664-0.012-1.23-0.036-1.699h0.473c0.055,0,0.169-0.003,0.343-0.008c0.174-0.005,0.335-0.008,0.483-0.008
	c0.837,0,1.256,0.286,1.256,0.859c0,0.454-0.239,0.771-0.717,0.949v0.041c0.184,0.051,0.346,0.195,0.484,0.431
	C54.195,9.49,54.382,9.923,54.617,10.552z M53.591,8.035c0-0.363-0.233-0.544-0.7-0.544c-0.171,0-0.323,0.013-0.454,0.038
	c0.02,0.283,0.03,0.651,0.03,1.105c0.101,0.003,0.185,0.005,0.254,0.005C53.301,8.64,53.591,8.438,53.591,8.035z"/>
<path fill="#F9F9FA" d="M58.539,8.706c0,0.56-0.171,1.024-0.515,1.393c-0.343,0.368-0.767,0.552-1.272,0.552
	c-0.481,0-0.885-0.169-1.209-0.507c-0.325-0.338-0.487-0.769-0.487-1.29c0-0.56,0.171-1.024,0.515-1.393
	c0.343-0.368,0.767-0.553,1.272-0.553c0.481,0,0.884,0.168,1.209,0.506C58.376,7.751,58.539,8.182,58.539,8.706z M57.784,8.785
	c0-0.381-0.098-0.69-0.292-0.928c-0.195-0.237-0.436-0.355-0.723-0.355c-0.266,0-0.492,0.12-0.678,0.358S55.811,8.4,55.811,8.766
	c0,0.379,0.098,0.688,0.294,0.926c0.196,0.238,0.437,0.357,0.721,0.357c0.266,0,0.493-0.12,0.678-0.36
	C57.69,9.449,57.784,9.147,57.784,8.785z"/>
<path fill="#F9F9FA" d="M60.085,10.552h-0.774c0.024-0.565,0.036-1.187,0.036-1.863c0-0.666-0.012-1.232-0.036-1.699h0.774
	C60.062,7.45,60.05,8.016,60.05,8.689C60.05,9.376,60.062,9.998,60.085,10.552z"/>
<path fill="#F9F9FA" d="M64.051,8.648c0,0.518-0.166,0.97-0.498,1.357s-0.797,0.58-1.396,0.58c-0.27,0-0.642-0.011-1.116-0.033
	c0.024-0.551,0.036-1.172,0.036-1.863c0-0.664-0.012-1.23-0.036-1.699h0.479c0.078,0,0.195-0.002,0.35-0.008
	c0.155-0.005,0.256-0.008,0.304-0.008c0.658,0,1.135,0.164,1.432,0.493C63.902,7.794,64.051,8.188,64.051,8.648z M63.304,8.766
	c0-0.35-0.102-0.645-0.306-0.885c-0.204-0.24-0.516-0.36-0.936-0.36c-0.079,0-0.186,0.008-0.323,0.025
	c0.018,0.365,0.027,0.746,0.027,1.144c0,0.436,0.009,0.868,0.027,1.297c0.118,0.023,0.237,0.036,0.355,0.036
	c0.392,0,0.683-0.122,0.871-0.366C63.209,9.413,63.304,9.116,63.304,8.766z"/>
<path fill="#F9F9FA" d="M69.311,10.552h-0.875c0-0.121-0.083-0.461-0.249-1.023h-1.264c-0.171,0.553-0.257,0.894-0.257,1.023h-0.823
	c0-0.071,0.213-0.655,0.639-1.751s0.639-1.7,0.639-1.811h1.034c0,0.104,0.193,0.699,0.579,1.785
	C69.117,9.861,69.311,10.454,69.311,10.552z M68.047,9.006c-0.312-0.941-0.468-1.45-0.468-1.527h-0.044
	c0,0.071-0.161,0.58-0.484,1.527H68.047z"/>
<path fill="#F9F9FA" d="M72.502,7.923c0,0.436-0.162,0.758-0.485,0.966c-0.324,0.208-0.721,0.312-1.191,0.312
	c-0.086,0-0.146-0.002-0.184-0.005c0,0.343,0.01,0.795,0.03,1.357h-0.769c0.023-0.527,0.035-1.148,0.035-1.863
	c0-0.656-0.012-1.223-0.035-1.699h0.476c0.067,0,0.196-0.003,0.389-0.008c0.191-0.005,0.356-0.008,0.497-0.008
	c0.347,0,0.64,0.078,0.879,0.235C72.382,7.366,72.502,7.604,72.502,7.923z M71.796,8.073c0-0.39-0.259-0.585-0.776-0.585
	c-0.13,0-0.267,0.014-0.41,0.041c0.02,0.345,0.029,0.735,0.029,1.171c0.046,0.004,0.099,0.005,0.159,0.005
	C71.464,8.706,71.796,8.495,71.796,8.073z"/>
<path fill="#F9F9FA" d="M75.783,7.923c0,0.436-0.162,0.758-0.485,0.966c-0.323,0.208-0.721,0.312-1.191,0.312
	c-0.086,0-0.146-0.002-0.184-0.005c0,0.343,0.01,0.795,0.03,1.357h-0.77c0.024-0.527,0.036-1.148,0.036-1.863
	c0-0.656-0.012-1.223-0.036-1.699h0.477c0.067,0,0.196-0.003,0.389-0.008c0.191-0.005,0.356-0.008,0.497-0.008
	c0.347,0,0.64,0.078,0.878,0.235C75.663,7.366,75.783,7.604,75.783,7.923z M75.077,8.073c0-0.39-0.259-0.585-0.776-0.585
	c-0.13,0-0.267,0.014-0.41,0.041C73.91,7.874,73.92,8.264,73.92,8.7c0.046,0.004,0.099,0.005,0.159,0.005
	C74.744,8.706,75.077,8.495,75.077,8.073z"/>
<path fill="#F9F9FA" d="M81.147,8.706c0,0.56-0.171,1.024-0.514,1.393c-0.344,0.368-0.768,0.552-1.272,0.552
	c-0.481,0-0.885-0.169-1.209-0.507s-0.487-0.769-0.487-1.29c0-0.56,0.172-1.024,0.515-1.393c0.343-0.369,0.767-0.553,1.272-0.553
	c0.481,0,0.884,0.168,1.209,0.506C80.985,7.751,81.147,8.182,81.147,8.706z M80.393,8.785c0-0.381-0.098-0.69-0.292-0.928
	c-0.195-0.237-0.437-0.355-0.723-0.355c-0.267,0-0.492,0.12-0.679,0.358C78.514,8.099,78.42,8.4,78.42,8.766
	c0,0.379,0.099,0.688,0.295,0.926c0.195,0.238,0.436,0.357,0.721,0.357c0.266,0,0.492-0.12,0.678-0.36
	C80.3,9.449,80.393,9.147,80.393,8.785z"/>
<path fill="#F9F9FA" d="M84.855,10.552H84.18c0-0.075-0.25-0.47-0.752-1.185c-0.525-0.753-0.824-1.269-0.897-1.546h-0.044
	c0.046,0.399,0.069,0.761,0.069,1.083c0,0.451,0.013,1,0.038,1.647h-0.673c0.026-0.565,0.041-1.186,0.041-1.863
	c0-0.666-0.015-1.232-0.041-1.699h0.812c0,0.097,0.225,0.482,0.675,1.157c0.48,0.717,0.755,1.203,0.826,1.458h0.041
	c-0.044-0.407-0.065-0.771-0.065-1.094c0-0.494-0.013-1.001-0.038-1.521h0.684c-0.025,0.452-0.038,1.019-0.038,1.699
	C84.817,9.375,84.83,9.996,84.855,10.552z"/>
</svg>
